<?xml version="1.0" encoding="utf-8"?>
<svg version="1.1" xmlns:xlink="http://www.w3.org/1999/xlink" width="25px" height="25px" xmlns="http://www.w3.org/2000/svg">
  <g transform="matrix(1 0 0 1 -301 -74 )">
    <path d="M 15.33203125 15.33203125  C 16.6491386217949 14.0149238782051  17.3076923076923 12.4298878205128  17.3076923076923 10.5769230769231  C 17.3076923076923 8.72395833333333  16.6491386217949 7.13892227564102  15.33203125 5.82181490384615  C 14.0149238782051 4.50470753205128  12.4298878205128 3.84615384615385  10.5769230769231 3.84615384615385  C 8.72395833333333 3.84615384615385  7.13892227564103 4.50470753205128  5.82181490384615 5.82181490384615  C 4.50470753205128 7.13892227564102  3.84615384615385 8.72395833333333  3.84615384615385 10.5769230769231  C 3.84615384615385 12.4298878205128  4.50470753205128 14.0149238782051  5.82181490384615 15.33203125  C 7.13892227564103 16.6491386217949  8.72395833333333 17.3076923076923  10.5769230769231 17.3076923076923  C 12.4298878205128 17.3076923076923  14.0149238782051 16.6491386217949  15.33203125 15.33203125  Z M 24.4441105769231 21.7247596153846  C 24.814703525641 22.0953525641026  25 22.5460737179487  25 23.0769230769231  C 25 23.5977564102564  24.8096955128205 24.0484775641026  24.4290865384615 24.4290865384615  C 24.0484775641026 24.8096955128205  23.5977564102564 25  23.0769230769231 25  C 22.5360576923077 25  22.0853365384615 24.8096955128205  21.7247596153846 24.4290865384615  L 16.5715144230769 19.2908653846154  C 14.7786458333333 20.5328525641026  12.7804487179487 21.1538461538462  10.5769230769231 21.1538461538462  C 9.14463141025641 21.1538461538462  7.77493990384615 20.8759014423077  6.46784855769231 20.3200120192308  C 5.16075721153846 19.7641225961538  4.03395432692308 19.0129206730769  3.08743990384615 18.06640625  C 2.14092548076923 17.1198918269231  1.38972355769231 15.9930889423077  0.833834134615385 14.6859975961538  C 0.277944711538462 13.37890625  0 12.0092147435897  0 10.5769230769231  C 0 9.14463141025641  0.277944711538462 7.77493990384615  0.833834134615385 6.46784855769231  C 1.38972355769231 5.16075721153846  2.14092548076923 4.03395432692308  3.08743990384615 3.08743990384615  C 4.03395432692308 2.14092548076923  5.16075721153846 1.38972355769231  6.46784855769231 0.833834134615385  C 7.77493990384615 0.277944711538461  9.14463141025641 0  10.5769230769231 0  C 12.0092147435897 0  13.37890625 0.277944711538461  14.6859975961538 0.833834134615385  C 15.9930889423077 1.38972355769231  17.1198918269231 2.14092548076923  18.06640625 3.08743990384615  C 19.0129206730769 4.03395432692308  19.7641225961538 5.16075721153846  20.3200120192308 6.46784855769231  C 20.8759014423077 7.77493990384615  21.1538461538462 9.14463141025641  21.1538461538462 10.5769230769231  C 21.1538461538462 12.7804487179487  20.5328525641026 14.7786458333333  19.2908653846154 16.5715144230769  L 24.4441105769231 21.7247596153846  Z " fill-rule="nonzero" fill="#333333" stroke="none" transform="matrix(1 0 0 1 301 74 )" />
  </g>
</svg>